HIERARCHY
ROOT Hips
{
	OFFSET -0.001795 -0.223333 0.028219
	CHANNELS 6 Xposition Yposition Zposition Zrotation Yrotation Xrotation 
	JOINT LeftUpLeg
	{
		OFFSET 0.069520 -0.091406 -0.006815
		CHANNELS 3 Zrotation Yrotation Xrotation
		JOINT LeftLeg
		{
			OFFSET 0.034277 -0.375199 -0.004496
			CHANNELS 3 Zrotation Yrotation Xrotation
			JOINT LeftFoot
			{
				OFFSET -0.013596 -0.397961 -0.043693
				CHANNELS 3 Zrotation Yrotation Xrotation
				JOINT LeftToe
				{
					OFFSET 0.026358 -0.055791 0.119288
					CHANNELS 3 Zrotation Yrotation Xrotation
					End Site
					{
						OFFSET 0.000000 0.000000 0.000000
					}
				}
			}
		}
	}
	JOINT RightUpLeg
	{
		OFFSET -0.067670 -0.090522 -0.004320
		CHANNELS 3 Zrotation Yrotation Xrotation
		JOINT RightLeg
		{
			OFFSET -0.038290 -0.382569 -0.008850
			CHANNELS 3 Zrotation Yrotation Xrotation
			JOINT RightFoot
			{
				OFFSET 0.015774 -0.398415 -0.042312
				CHANNELS 3 Zrotation Yrotation Xrotation
				JOINT RightToe
				{
					OFFSET -0.025372 -0.048144 0.123348
					CHANNELS 3 Zrotation Yrotation Xrotation
					End Site
					{
						OFFSET 0.000000 0.000000 0.000000
					}
				}
			}
		}
	}
	JOINT Spine
	{
		OFFSET -0.002533 0.108963 -0.026696
		CHANNELS 3 Zrotation Yrotation Xrotation
		JOINT Spine1
		{
			OFFSET 0.005487 0.135180 0.001092
			CHANNELS 3 Zrotation Yrotation Xrotation
			JOINT Spine2
			{
				OFFSET 0.001457 0.052922 0.025425
				CHANNELS 3 Zrotation Yrotation Xrotation
				JOINT Neck
				{
					OFFSET -0.002778 0.213870 -0.042857
					CHANNELS 3 Zrotation Yrotation Xrotation
					JOINT Head
					{
						OFFSET 0.005152 0.064970 0.051349
						CHANNELS 3 Zrotation Yrotation Xrotation
						End Site
						{
							OFFSET 0.000000 0.000000 0.000000
						}
					}
				}
				JOINT LeftShoulder
				{
					OFFSET 0.078845 0.121749 -0.034090
					CHANNELS 3 Zrotation Yrotation Xrotation
					JOINT LeftArm
					{
						OFFSET 0.090977 0.030469 -0.008868
						CHANNELS 3 Zrotation Yrotation Xrotation
						JOINT LeftForeArm
						{
							OFFSET 0.259612 -0.012772 -0.027456
							CHANNELS 3 Zrotation Yrotation Xrotation
							JOINT LeftHand
							{
								OFFSET 0.249234 0.008986 -0.001171
								CHANNELS 3 Zrotation Yrotation Xrotation
								End Site
								{
									OFFSET 0.000000 0.000000 0.000000
								}
							}
						}
					}
				}
				JOINT RightShoulder
				{
					OFFSET -0.081759 0.118833 -0.038615
					CHANNELS 3 Zrotation Yrotation Xrotation
					JOINT RightArm
					{
						OFFSET -0.096012 0.032551 -0.009143
						CHANNELS 3 Zrotation Yrotation Xrotation
						JOINT RightForeArm
						{
							OFFSET -0.253742 -0.013329 -0.021401
							CHANNELS 3 Zrotation Yrotation Xrotation
							JOINT RightHand
							{
								OFFSET -0.255298 0.007772 -0.005559
								CHANNELS 3 Zrotation Yrotation Xrotation
								End Site
								{
									OFFSET 0.000000 0.000000 0.000000
								}
							}
						}
					}
				}
			}
		}
	}
}
MOTION
Frames: 18
Frame Time: 0.050000
0.000000 0.949445 0.000000 -0.947804 -0.714793 3.098224 3.344756 0.190635 4.003053 -2.246201 0.327783 -5.611871 6.503612 15.003554 12.349385 0.000000 0.000000 0.000000 -2.718795 0.082895 0.052402 2.882591 -0.325642 -1.979482 -2.929151 -9.711120 8.105126 0.000000 0.000000 0.000000 7.462171 0.096299 -2.157190 -5.237181 1.892405 -21.970574 -2.294936 5.248297 26.767990 9.433481 -2.857159 -27.351282 0.000000 0.000000 0.000000 -17.932470 -7.951881 2.052090 -56.079301 -5.304849 -6.416917 -6.740281 -24.308729 2.462243 0.000000 0.000000 0.000000 24.815720 -5.951613 -3.678240 61.084615 4.752465 -6.146621 5.841747 23.469183 2.501075 0.000000 0.000000 0.000000 
0.000377 0.948362 0.000318 -1.182731 -0.968145 3.556258 3.483615 0.163382 3.699776 -2.389225 0.341462 -5.872791 7.199584 16.020759 11.801699 0.000000 0.000000 0.000000 -2.812958 0.158154 -0.849789 3.134461 -0.334733 -1.151331 -2.903264 -9.558520 7.624088 0.000000 0.000000 0.000000 8.270189 0.192727 -3.077733 -5.877791 2.066086 -21.444228 -2.324554 5.691306 26.506155 9.809254 -2.880402 -28.168234 0.000000 0.000000 0.000000 -17.628874 -7.656831 1.837313 -55.714288 -5.461011 -6.273695 -6.988897 -24.871835 2.557697 0.000000 0.000000 0.000000 24.465304 -6.570630 -3.987447 62.315034 4.633972 -6.192645 5.906322 24.126033 2.623351 0.000000 0.000000 0.000000 
0.000675 0.948127 0.000310 -1.005031 -0.426585 3.271134 3.379133 0.166016 3.709481 -2.943354 0.365035 -5.277501 7.601374 16.694978 12.078289 0.000000 0.000000 0.000000 -2.861775 0.138959 -0.641532 2.609336 -0.292409 -1.292322 -2.752433 -9.372006 8.275445 0.000000 0.000000 0.000000 8.155730 0.209381 -3.201867 -5.763658 2.035413 -21.856119 -2.343755 5.179734 27.278300 8.718853 -2.396006 -27.705838 0.000000 0.000000 0.000000 -17.630399 -7.825406 1.993891 -55.685011 -6.113783 -6.067308 -6.779613 -24.249588 2.460804 0.000000 0.000000 0.000000 24.319564 -5.690944 -3.436879 61.818842 5.532233 -5.802498 6.070795 23.508298 2.557623 0.000000 0.000000 0.000000 
0.000786 0.948198 0.000338 -0.969803 -0.058027 3.048703 3.185610 0.185603 3.894344 -2.747315 0.344822 -4.715179 7.916511 17.191199 11.919697 0.000000 0.000000 0.000000 -3.007095 0.154459 -0.850038 3.245784 -0.347338 -0.669997 -3.190578 -10.240531 8.328635 0.000000 0.000000 0.000000 8.301168 0.230389 -3.345332 -5.953194 2.081081 -22.262090 -2.224488 5.340226 27.710686 8.980564 -2.477896 -27.774751 0.000000 0.000000 0.000000 -17.398796 -8.032852 2.017453 -56.152961 -6.343976 -6.034044 -6.206075 -24.424607 2.347276 0.000000 0.000000 0.000000 24.309267 -6.069127 -3.525361 61.728262 6.142784 -5.529941 6.883155 23.542831 2.750430 0.000000 0.000000 0.000000 
0.000805 0.948583 0.000230 -0.966196 0.771680 2.903769 3.082957 0.181957 3.871485 -2.442369 0.318673 -4.651496 7.571891 16.732658 12.258856 0.000000 0.000000 0.000000 -2.844124 0.135396 -0.717691 3.076128 -0.336448 -0.650077 -3.387380 -10.587594 8.403255 0.000000 0.000000 0.000000 7.989988 0.229946 -3.400617 -5.278425 1.945029 -21.513519 -2.563877 4.944469 26.832932 8.854440 -2.479053 -26.998578 0.000000 0.000000 0.000000 -17.803464 -7.998463 1.893973 -55.771413 -6.388838 -5.856057 -6.472505 -24.196258 2.355565 0.000000 0.000000 0.000000 24.162531 -5.600732 -3.205145 61.220801 6.654048 -5.147965 6.883072 23.469923 2.716883 0.000000 0.000000 0.000000 
0.000823 0.949062 0.000124 -1.068362 1.351909 2.731868 3.095752 0.169245 3.759627 -2.143610 0.287903 -4.091700 7.359386 16.398472 11.756019 0.000000 0.000000 0.000000 -2.746142 0.123632 -0.646244 3.165781 -0.346284 -0.312805 -3.618006 -11.054884 8.654182 0.000000 0.000000 0.000000 7.957734 0.224069 -3.349811 -5.395957 1.979881 -21.774273 -2.366835 4.702288 27.007129 9.074430 -2.604833 -26.946311 0.000000 0.000000 0.000000 -18.080707 -8.154292 1.925572 -55.421965 -6.479770 -5.784718 -6.263969 -24.583078 2.343957 0.000000 0.000000 0.000000 24.009952 -5.271130 -2.939773 61.132175 7.145578 -4.911645 6.781903 23.207566 2.658252 0.000000 0.000000 0.000000 
0.000849 0.949431 -0.000035 -1.030106 1.959420 2.493159 3.064424 0.173487 3.876463 -2.339963 0.297736 -4.055871 7.334875 16.417326 12.031510 0.000000 0.000000 0.000000 -2.585983 0.109126 -0.561081 2.860583 -0.315929 -0.132747 -3.681393 -11.167006 8.834961 0.000000 0.000000 0.000000 7.801391 0.227846 -3.383600 -5.323602 1.979933 -21.511843 -2.473214 4.489607 26.786414 9.431900 -2.784102 -26.919864 0.000000 0.000000 0.000000 -18.254879 -8.059626 1.800136 -55.076178 -6.262935 -5.811520 -6.548425 -24.736263 2.403837 0.000000 0.000000 0.000000 24.075529 -4.975869 -2.708542 60.932535 7.729864 -4.594496 6.556521 23.333594 2.630369 0.000000 0.000000 0.000000 
0.000979 0.949642 -0.000218 -1.129702 2.622982 2.411347 3.011260 0.163080 3.761697 -2.285666 0.285557 -3.660568 7.127127 16.066590 11.339806 0.000000 0.000000 0.000000 -2.381992 0.106197 -0.615049 2.761724 -0.305488 0.143354 -3.984091 -11.703914 8.740297 0.000000 0.000000 0.000000 7.721684 0.232208 -3.461988 -5.362211 2.003497 -21.518362 -2.469746 4.387749 26.853645 9.922377 -3.010101 -27.022530 0.000000 0.000000 0.000000 -18.246418 -8.049467 1.708733 -54.629722 -6.331689 -5.735607 -6.861298 -24.862694 2.466467 0.000000 0.000000 0.000000 23.859556 -4.989352 -2.600897 61.044629 8.234485 -4.338561 6.683255 23.377850 2.673763 0.000000 0.000000 0.000000 
0.001140 0.949918 -0.000362 -1.140801 2.913917 2.376930 2.919767 0.169672 3.828758 -2.270590 0.283507 -3.702180 7.064229 15.950204 11.037838 0.000000 0.000000 0.000000 -2.356337 0.099872 -0.560915 2.672102 -0.299149 0.012828 -4.196960 -12.114370 8.777624 0.000000 0.000000 0.000000 7.727939 0.244825 -3.593569 -5.539087 2.054497 -21.530483 -2.300370 4.583486 26.862862 10.086527 -3.055670 -26.974449 0.000000 0.000000 0.000000 -18.092493 -8.267722 1.731950 -54.458673 -6.429573 -5.667428 -6.913266 -24.468973 2.415334 0.000000 0.000000 0.000000 23.886530 -5.118766 -2.565615 60.843323 8.731226 -4.097526 6.613738 23.417844 2.680879 0.000000 0.000000 0.000000 
0.001310 0.949901 -0.000456 -1.189784 3.184071 2.246274 2.951190 0.175179 3.985411 -2.393252 0.290006 -3.667793 6.943997 15.750656 10.832338 0.000000 0.000000 0.000000 -2.397700 0.095881 -0.528551 2.718264 -0.306483 0.005050 -4.382801 -12.469003 8.783069 0.000000 0.000000 0.000000 7.791557 0.248509 -3.607099 -5.616826 2.080702 -21.476728 -2.307720 4.720346 26.916678 10.363095 -3.061683 -27.575844 0.000000 0.000000 0.000000 -17.900903 -8.388476 1.722351 -54.248006 -6.365948 -5.668041 -7.303735 -24.382556 2.469960 0.000000 0.000000 0.000000 23.967229 -5.139004 -2.479340 60.903599 9.357098 -3.792143 6.310640 23.571155 2.660539 0.000000 0.000000 0.000000 
0.001479 0.950041 -0.000564 -1.220218 3.017906 2.150297 2.868188 0.194253 4.179529 -2.268419 0.283441 -3.742040 6.880127 15.622044 10.647238 0.000000 0.000000 0.000000 -2.355367 0.084364 -0.392896 2.812511 -0.314832 0.097234 -4.473914 -12.635512 8.564122 0.000000 0.000000 0.000000 7.892395 0.239877 -3.482380 -5.732388 2.110306 -21.459696 -2.272127 4.853359 26.823622 10.585655 -3.190184 -27.553108 0.000000 0.000000 0.000000 -17.856799 -8.522926 1.789932 -53.818913 -5.972357 -5.791897 -7.647785 -24.325809 2.531155 0.000000 0.000000 0.000000 24.044315 -5.060247 -2.429767 60.853988 9.774791 -3.578264 6.222732 24.201217 2.736358 0.000000 0.000000 0.000000 
0.001702 0.950006 -0.000790 -1.290673 2.975304 2.093637 3.123107 0.183331 4.246434 -2.434763 0.294283 -3.670218 6.781209 15.454481 10.560391 0.000000 0.000000 0.000000 -2.427624 0.085879 -0.397404 2.982148 -0.332178 0.247020 -4.417814 -12.518602 8.509973 0.000000 0.000000 0.000000 7.969600 0.238800 -3.448362 -5.776620 2.121630 -21.449118 -2.318785 4.790716 26.689040 10.699168 -3.193635 -27.950983 0.000000 0.000000 0.000000 -17.639723 -8.565719 1.845047 -53.647326 -5.635466 -5.915162 -7.720279 -24.071968 2.517240 0.000000 0.000000 0.000000 24.166512 -4.955577 -2.396685 60.922344 10.067753 -3.419258 6.000110 24.800002 2.778108 0.000000 0.000000 0.000000 
0.002138 0.950037 -0.001196 -1.359403 2.634347 2.018161 3.096227 0.193321 4.316360 -2.544752 0.303250 -3.598058 6.947197 15.706710 10.632139 0.000000 0.000000 0.000000 -2.528754 0.082709 -0.320186 2.956719 -0.326782 0.255678 -4.217866 -12.143960 8.531065 0.000000 0.000000 0.000000 8.044981 0.217064 -3.198342 -5.761936 2.105198 -21.656626 -2.328060 4.777352 26.755205 10.917568 -3.345145 -28.034199 0.000000 0.000000 0.000000 -17.583582 -8.789418 2.030651 -53.269985 -4.905669 -6.207729 -8.249716 -24.013565 2.628390 0.000000 0.000000 0.000000 24.196581 -4.794192 -2.368569 60.851292 10.182065 -3.368359 5.996321 25.808939 2.915465 0.000000 0.000000 0.000000 
0.002864 0.950267 -0.001820 -1.350656 2.598661 1.700725 3.090694 0.208903 4.530000 -2.795364 0.320404 -3.465478 6.964813 15.723574 10.551535 0.000000 0.000000 0.000000 -2.658065 0.070536 -0.160291 3.071366 -0.339340 0.319785 -4.192401 -12.128343 8.746384 0.000000 0.000000 0.000000 7.960060 0.172622 -2.715247 -5.809031 2.114397 -21.803876 -2.325150 4.440750 26.865526 11.022129 -3.441411 -28.217113 0.000000 0.000000 0.000000 -17.555598 -8.956665 2.217299 -53.040480 -4.703507 -6.302522 -8.223116 -23.938300 2.628744 0.000000 0.000000 0.000000 24.277374 -4.565660 -2.330196 60.576493 10.428135 -3.271311 5.745809 26.486376 2.944153 0.000000 0.000000 0.000000 
0.003920 0.950399 -0.002570 -1.276229 2.620193 1.653820 3.027998 0.223182 4.700003 -3.019597 0.337930 -3.696930 6.961559 15.745253 10.782445 0.000000 0.000000 0.000000 -2.984368 0.077376 -0.174099 3.101407 -0.344257 0.204535 -4.121627 -12.052418 9.200810 0.000000 0.000000 0.000000 7.909973 0.167064 -2.657125 -5.837733 2.122247 -21.814242 -2.385822 4.177718 26.975394 11.156170 -3.547325 -28.310989 0.000000 0.000000 0.000000 -17.437777 -8.870519 2.249123 -53.105513 -4.549123 -6.405920 -8.272891 -23.927189 2.650595 0.000000 0.000000 0.000000 24.221489 -4.505927 -2.364297 60.512602 10.542976 -3.217493 5.459422 26.879834 2.927114 0.000000 0.000000 0.000000 
0.005059 0.950803 -0.003391 -1.236646 2.565925 1.404337 2.789862 0.254877 4.932022 -2.952292 0.333722 -3.668022 6.952143 15.736821 10.852268 0.000000 0.000000 0.000000 -3.346249 0.062009 0.105023 3.278867 -0.366782 -0.034669 -3.872715 -11.650820 9.752341 0.000000 0.000000 0.000000 7.789170 0.139548 -2.339522 -5.861065 2.122852 -21.974861 -2.186048 3.997400 27.141450 11.157787 -3.638856 -28.068499 0.000000 0.000000 0.000000 -17.677982 -8.971167 2.349426 -52.879889 -3.802682 -6.717490 -8.523546 -24.770402 2.813339 0.000000 0.000000 0.000000 24.252768 -4.514533 -2.432251 60.246952 10.174599 -3.430437 5.343935 27.291579 2.948060 0.000000 0.000000 0.000000 
0.006193 0.951123 -0.004454 -1.226058 2.609045 1.428455 2.669020 0.266597 5.003976 -3.012048 0.338705 -3.843321 6.976604 15.784174 10.921508 0.000000 0.000000 0.000000 -3.577985 0.075361 -0.018357 3.254450 -0.365707 -0.172085 -3.721988 -11.401302 10.070750 0.000000 0.000000 0.000000 7.681761 0.142962 -2.383895 -5.846623 2.123456 -21.867178 -2.134209 3.849355 27.080743 11.143177 -3.662169 -27.990378 0.000000 0.000000 0.000000 -17.503511 -8.668982 2.231784 -53.318849 -3.737910 -6.811676 -8.297918 -25.035838 2.806430 0.000000 0.000000 0.000000 24.312203 -4.588822 -2.523602 59.867934 9.784163 -3.625011 5.300769 27.145099 2.905704 0.000000 0.000000 0.000000 
0.007180 0.951476 -0.006010 -1.264037 2.740296 1.393118 2.660069 0.261946 4.943216 -3.045193 0.339386 -3.731723 6.817088 15.510215 10.648738 0.000000 0.000000 0.000000 -3.811130 0.078922 -0.026370 3.193790 -0.362304 -0.390209 -3.490139 -11.001625 10.466022 0.000000 0.000000 0.000000 7.644012 0.107193 -2.046438 -5.857341 2.115361 -22.243385 -2.103367 3.893632 27.368751 11.379698 -3.866890 -27.590313 0.000000 0.000000 0.000000 -17.536701 -8.699024 2.224951 -53.489637 -3.639898 -6.907425 -8.062152 -25.502701 2.810898 0.000000 0.000000 0.000000 24.261513 -4.658989 -2.512342 59.445928 9.275061 -3.922252 5.528421 27.258911 2.979593 0.000000 0.000000 0.000000 
